<svg width="124" height="124" viewBox="0 0 124 124" fill="none" xmlns="http://www.w3.org/2000/svg">
    <path d="M86.5394 41.8L75.5647 30.9063C71.3973 26.775 65.8596 24.5 59.9723 24.5H45.7499C37.0655 24.5 30 31.5094 30 40.125V83.875C30 92.4906 37.0655 99.5 45.7499 99.5H77.2501C85.9346 99.5 93 92.4906 93 83.875V57.2657C93 51.4188 90.7037 45.9313 86.5394 41.8ZM82.0853 46.2219C83.077 47.2058 83.8619 48.3282 84.5454 49.5031H70.95C69.2112 49.5031 67.8001 48.1 67.8001 46.3782V32.8875C68.9846 33.5654 70.1153 34.3438 71.1106 35.3281L82.0853 46.2219ZM86.7001 83.8782C86.7001 89.0469 82.4602 93.2532 77.2501 93.2532H45.7499C40.5399 93.2532 36.2999 89.0469 36.2999 83.8782V40.125C36.2999 34.9563 40.5399 30.75 45.7499 30.75H59.9723C60.4914 30.75 60.9902 30.8444 61.5 30.8966V46.3747C61.5 51.5434 65.7399 55.7497 70.95 55.7497H86.552C86.5995 56.2564 86.6997 56.7501 86.6997 57.2654V83.8747L86.7001 83.8782ZM80.4 74.503C80.4 76.228 78.8072 76.8535 77.2501 77.6281C66.4341 83.0079 55.9012 83.5674 45.7499 77.6281C44.2495 76.7506 42.6 76.228 42.6 74.503C42.6 72.778 44.3051 70.4128 45.7499 71.3781C55.7714 78.0732 66.1245 80.1279 77.2501 71.3781C78.615 70.3044 80.4 72.778 80.4 74.503ZM45.7499 52.625C45.7499 49.1719 48.5693 46.375 52.05 46.375C55.5307 46.375 58.35 49.1719 58.35 52.625C58.35 56.0781 55.5307 58.875 52.05 58.875C48.5693 58.875 45.7499 56.0781 45.7499 52.625Z" fill="#1A73E8"/>
</svg>