<?xml version="1.0" encoding="UTF-8" standalone="no"?>
<svg
        id="Layer_1"
        data-name="Layer 1"
        viewBox="0 0 19.999969 24"
        version="1.1"
        width="19.999969"
        height="32"
        xmlns="http://www.w3.org/2000/svg">
    <defs id="defs1"/>
    <path
            d="M 17.94898,5.53599 14.46497,2.05002 C 13.14198,0.72801 11.38397,0 9.515,0 H 4.99997 C 2.243,0 0,2.243 0,5.00001 V 18.99999 C 0,21.757 2.243,24 4.99997,24 H 15 c 2.75698,0 4.99997,-2.243 4.99997,-5.00001 v -8.51498 c 0,-1.87101 -0.72899,-3.628 -2.05099,-4.95001 z m -1.414,1.41501 c 0.31483,0.31484 0.56402,0.67401 0.781,1.05 H 12.99999 C 12.44799,8.001 12,7.55199 12,7.00101 V 2.68399 c 0.37606,0.21695 0.735,0.46602 1.05097,0.78101 z M 18,19.00101 c 0,1.65399 -1.346,3 -3,3 H 4.99997 c -1.65399,0 -3,-1.34601 -3,-3 v -14.001 c 0,-1.65399 1.34601,-3 3,-3 H 9.515 c 0.16479,0 0.32315,0.0302 0.48499,0.0469 V 6.9999 c 0,1.654 1.346,3 3,3 h 4.95299 c 0.0151,0.16215 0.0469,0.32013 0.0469,0.48503 v 8.51497 z m -2.00001,-3.00004 c 0,0.552 -0.50567,0.75216 -0.99999,1.00003 -3.43363,1.72153 -6.77741,1.90057 -10.00003,0 -0.47633,-0.28082 -0.99998,-0.44803 -0.99998,-1.00003 0,-0.552 0.5413,-1.30889 0.99998,-0.99999 3.18142,2.14243 6.4681,2.79995 10.00003,0 0.43332,-0.34356 0.99999,0.44799 0.99999,0.99999 z M 4.99997,9 C 4.99997,7.89502 5.895,6.99999 6.99999,6.99999 8.10497,6.99999 9,7.89502 9,9 9,10.10498 8.10497,11.00001 6.99999,11.00001 5.895,11.00001 4.99997,10.10498 4.99997,9 Z"
            id="path1-7"
            style="stroke-width:0.999999"/></svg>
